<svg xmlns="http://www.w3.org/2000/svg" xmlns:xlink="http://www.w3.org/1999/xlink" width="500" zoomAndPan="magnify" viewBox="0 0 375 374.999991" height="500" preserveAspectRatio="xMidYMid meet" version="1.0"><defs><clipPath id="cc30572770"><path d="M 39 72.390625 L 278 72.390625 L 278 224 L 39 224 Z M 39 72.390625 " clip-rule="nonzero"/></clipPath><clipPath id="585a0a51ec"><path d="M 90 156 L 337.5 156 L 337.5 302.640625 L 90 302.640625 Z M 90 156 " clip-rule="nonzero"/></clipPath><clipPath id="0426befd93"><path d="M 99.261719 174.183594 L 213.261719 174.183594 L 213.261719 315 L 99.261719 315 Z M 99.261719 174.183594 " clip-rule="nonzero"/></clipPath><clipPath id="3b390b0fbf"><path d="M 56.144531 37.5 L 187.394531 37.5 L 187.394531 202.5 L 56.144531 202.5 Z M 56.144531 37.5 " clip-rule="nonzero"/></clipPath><clipPath id="c7f5272bfd"><path d="M 156.429688 90.566406 L 274.929688 90.566406 L 274.929688 229.316406 L 156.429688 229.316406 Z M 156.429688 90.566406 " clip-rule="nonzero"/></clipPath></defs><path fill="#737373" d="M 205.117188 172.136719 C 206.714844 171.984375 206.359375 169.554688 204.804688 169.742188 C 203.203125 169.933594 203.566406 172.285156 205.117188 172.136719 Z M 205.117188 172.136719 " fill-opacity="1" fill-rule="nonzero"/><path fill="#737373" d="M 216.78125 181.554688 C 217.945312 181.105469 217.273438 179.230469 216.078125 179.640625 C 214.792969 180.082031 215.503906 182.046875 216.78125 181.554688 Z M 216.78125 181.554688 " fill-opacity="1" fill-rule="nonzero"/><path fill="#737373" d="M 211.613281 102.828125 C 215.929688 102.054688 214.96875 94.933594 210.519531 95.71875 C 206.132812 96.488281 207.117188 103.636719 211.613281 102.828125 Z M 210.910156 97.65625 C 212.847656 97.339844 213.011719 100.640625 211.144531 100.90625 C 209.222656 101.183594 209.085938 97.953125 210.910156 97.65625 Z M 210.910156 97.65625 " fill-opacity="1" fill-rule="nonzero"/><path fill="#737373" d="M 207.152344 113.5625 C 210.867188 112.820312 209.820312 106.59375 205.980469 107.40625 C 202.089844 108.234375 203.105469 114.375 207.152344 113.5625 Z M 206.371094 109.347656 C 207.726562 109.054688 207.929688 111.34375 206.683594 111.621094 C 205.222656 111.949219 205.039062 109.632812 206.371094 109.347656 Z M 206.371094 109.347656 " fill-opacity="1" fill-rule="nonzero"/><path fill="#737373" d="M 199.484375 118.078125 C 196.171875 118.671875 197.28125 123.648438 200.578125 123.078125 C 203.832031 122.515625 202.730469 117.496094 199.484375 118.078125 Z M 200.105469 121.121094 C 199.398438 121.246094 199.164062 120.179688 199.875 120.027344 C 200.589844 119.871094 200.847656 120.996094 200.105469 121.121094 Z M 200.105469 121.121094 " fill-opacity="1" fill-rule="nonzero"/><path fill="#737373" d="M 210.707031 176.511719 C 212.175781 176.367188 211.871094 174.128906 210.441406 174.261719 C 209.042969 174.390625 209.351562 176.644531 210.707031 176.511719 Z M 210.707031 176.511719 " fill-opacity="1" fill-rule="nonzero"/><path fill="#737373" d="M 155.027344 127.414062 C 156.359375 128.027344 157.683594 128.511719 159.097656 128.902344 C 165.277344 130.613281 171.757812 131.019531 178.035156 129.648438 C 188.644531 127.328125 197.820312 118.300781 201.332031 108.222656 C 202.726562 104.238281 203.855469 99.949219 204.390625 95.757812 C 204.5625 94.421875 204.988281 91.417969 202.691406 91.90625 C 200.210938 92.425781 197.832031 93.410156 195.335938 93.90625 C 190.816406 94.796875 186.144531 95.28125 181.714844 96.570312 C 175.210938 98.464844 169.386719 101.949219 164.496094 106.59375 C 160.433594 110.453125 157.066406 115.59375 154.800781 120.691406 C 154.261719 121.910156 153.796875 123.136719 153.460938 124.429688 C 153.335938 124.90625 153.074219 125.582031 153.273438 126.066406 C 153.574219 126.800781 154.355469 127.105469 155.027344 127.414062 Z M 157.21875 123.261719 C 158.132812 121.578125 158.957031 119.851562 159.925781 118.195312 C 164.167969 110.917969 169.609375 104.625 177.566406 101.300781 C 182.113281 99.402344 186.824219 98.390625 191.65625 97.492188 C 194.863281 96.898438 198.355469 96.628906 201.359375 95.292969 C 201.359375 96.773438 200.84375 98.3125 200.457031 99.730469 C 199.992188 101.410156 199.578125 103.070312 199.003906 104.71875 C 198.367188 106.542969 197.738281 108.363281 196.871094 110.09375 C 195.902344 112.027344 194.582031 113.769531 193.261719 115.46875 C 190.375 119.1875 186.898438 122.628906 182.578125 124.652344 C 178.703125 126.464844 174.308594 127.15625 170.054688 127.15625 C 166.683594 127.15625 163.082031 126.847656 159.800781 126.054688 C 159 125.863281 158.226562 125.675781 157.453125 125.390625 C 157.195312 125.292969 156.75 125.210938 156.5625 124.996094 C 156.269531 124.65625 157.042969 123.585938 157.21875 123.261719 Z M 157.21875 123.261719 " fill-opacity="1" fill-rule="nonzero"/><path fill="#737373" d="M 81.453125 140.667969 C 81.015625 140.730469 80.585938 140.832031 80.203125 141.058594 C 77.132812 142.871094 79.527344 147.296875 82.707031 146.761719 C 86.5 146.128906 85.085938 140.152344 81.453125 140.667969 Z M 82 144.835938 C 80.6875 144.800781 80.277344 142.613281 81.765625 142.628906 C 83.121094 142.640625 83.53125 144.878906 82 144.835938 Z M 82 144.835938 " fill-opacity="1" fill-rule="nonzero"/><path fill="#737373" d="M 91.863281 146.753906 C 88.664062 147.507812 90 152.441406 93.195312 151.722656 C 96.503906 150.976562 95.136719 145.976562 91.863281 146.753906 Z M 92.71875 149.78125 C 92.019531 149.976562 91.75 148.863281 92.414062 148.691406 C 93.140625 148.507812 93.441406 149.578125 92.71875 149.78125 Z M 92.71875 149.78125 " fill-opacity="1" fill-rule="nonzero"/><path fill="#737373" d="M 71.515625 132.800781 C 69.238281 133.203125 68.195312 135.761719 69.195312 137.75 C 69.96875 139.289062 71.644531 140.042969 73.3125 139.726562 C 75.230469 139.367188 76.222656 137.167969 75.679688 135.414062 C 75.136719 133.65625 73.351562 132.476562 71.515625 132.800781 Z M 72.84375 137.796875 C 71 138.199219 69.878906 135.109375 71.828125 134.738281 C 73.617188 134.398438 74.792969 137.375 72.84375 137.796875 Z M 72.84375 137.796875 " fill-opacity="1" fill-rule="nonzero"/><path fill="#737373" d="M 111.117188 147.234375 C 118.84375 146.289062 125.164062 142.304688 130.917969 137.328125 C 132.425781 136.027344 133.804688 134.496094 134.910156 132.84375 C 135.316406 132.234375 135.941406 131.535156 135.820312 130.738281 C 135.710938 130 134.796875 129.347656 134.285156 128.863281 C 132.746094 127.40625 130.992188 126.242188 129.199219 125.125 C 123.523438 121.589844 117.085938 119.128906 110.414062 118.417969 C 108.207031 118.183594 105.796875 117.96875 103.582031 118.238281 C 100.695312 118.59375 97.886719 118.902344 95.074219 119.6875 C 90.613281 120.9375 86.332031 122.808594 81.921875 124.214844 C 80.230469 124.753906 78.472656 125.082031 76.757812 125.527344 C 76.078125 125.707031 75.167969 125.765625 74.871094 126.53125 C 74.476562 127.554688 75.375 128.742188 75.96875 129.492188 C 77.601562 131.5625 79.359375 133.539062 81.21875 135.414062 C 83.773438 137.988281 86.414062 140.402344 89.515625 142.316406 C 95.640625 146.09375 103.921875 148.113281 111.117188 147.234375 Z M 86.070312 135.527344 C 84.203125 133.964844 82.519531 132.25 80.824219 130.503906 C 80.140625 129.800781 79.039062 128.960938 78.714844 128.011719 C 81.523438 127.65625 84.132812 126.511719 86.777344 125.574219 C 90.871094 124.125 95.015625 122.597656 99.300781 121.804688 C 103.070312 121.105469 107.078125 120.875 110.882812 121.414062 C 115.136719 122.011719 119.199219 123.628906 123.015625 125.539062 C 126.324219 127.199219 129.261719 129.421875 132.484375 131.207031 C 132.222656 132.207031 131.085938 133.082031 130.371094 133.777344 C 128.117188 135.96875 125.378906 137.855469 122.703125 139.5 C 118.589844 142.015625 113.929688 143.804688 109.082031 144.128906 C 106.171875 144.320312 103.179688 143.796875 100.394531 143.003906 C 95.027344 141.480469 90.34375 139.097656 86.070312 135.527344 Z M 86.070312 135.527344 " fill-opacity="1" fill-rule="nonzero"/><g clip-path="url(#cc30572770)"><path fill="#737373" d="M 124.734375 161.410156 C 130.394531 159.453125 135.773438 156.472656 140.625 152.988281 C 142.117188 151.917969 143.53125 150.761719 144.929688 149.570312 C 146.140625 148.542969 147.464844 147.410156 149 146.90625 C 152.488281 145.761719 156.359375 147.371094 159.878906 147.710938 C 165.902344 148.292969 172.234375 148.328125 178.195312 147.144531 C 193.914062 144.019531 207.902344 134.484375 216.554688 121 C 219.09375 117.046875 221 112.722656 222.546875 108.300781 C 224.859375 101.710938 226.382812 95.03125 226.71875 88.046875 C 233.78125 91.3125 241.054688 95.640625 246.300781 101.449219 C 248.875 104.300781 251.074219 107.386719 252.152344 111.105469 C 253.390625 115.363281 252.683594 119.539062 252.023438 123.804688 C 251.46875 127.367188 250.90625 131.105469 251.066406 134.710938 C 251.472656 143.988281 258.261719 151.816406 265.460938 156.972656 C 267.632812 158.527344 270.078125 159.671875 272.507812 160.757812 C 273.644531 161.265625 274.992188 162.03125 276.265625 162.054688 C 277.476562 162.074219 278.160156 160.347656 277.734375 159.332031 C 277.492188 158.765625 276.796875 158.464844 276.265625 158.230469 C 272.351562 156.527344 268.453125 154.796875 264.992188 152.261719 C 258.59375 147.574219 254.175781 140.613281 253.882812 132.609375 C 253.703125 127.804688 255.367188 123.035156 255.824219 118.273438 C 256.113281 115.234375 255.632812 112.101562 254.605469 109.238281 C 251.320312 100.046875 243.296875 93.632812 235.171875 88.78125 C 233.5 87.785156 231.769531 86.832031 230.007812 86.003906 C 229.082031 85.566406 227.855469 85.246094 227.042969 84.621094 C 226.597656 84.277344 226.796875 83.253906 226.796875 82.75 C 226.796875 81.453125 226.875 78.640625 225.621094 77.859375 C 224.371094 77.078125 222.625 76.75 221.242188 76.25 C 217.273438 74.8125 213.320312 73.679688 209.109375 73.230469 C 201.476562 72.417969 193.710938 72.601562 186.253906 74.582031 C 177.175781 76.992188 168.855469 82.378906 162.148438 88.828125 C 156.96875 93.808594 152.582031 99.554688 147.675781 104.796875 C 146.066406 106.515625 144.351562 108.179688 142.425781 109.546875 C 141.652344 110.097656 140.703125 110.773438 139.765625 110.988281 C 136.933594 111.636719 133.460938 110.558594 130.761719 109.761719 C 125.351562 108.15625 120.105469 106.074219 114.71875 104.410156 C 101.515625 100.324219 87.449219 99.476562 74.488281 104.90625 C 66.679688 108.179688 59.191406 113.097656 53.578125 119.441406 C 52.449219 120.71875 51.34375 122.015625 50.269531 123.339844 C 49.835938 123.871094 49.160156 124.40625 48.90625 125.050781 C 48.339844 126.5 49.714844 128.582031 50.347656 129.804688 C 50.578125 130.25 51.339844 131.097656 51.082031 131.597656 C 50.671875 132.394531 49.992188 133.117188 49.480469 133.855469 C 48.367188 135.46875 47.3125 137.136719 46.34375 138.84375 C 41.5 147.378906 37.511719 157.648438 39.804688 167.589844 C 41.921875 176.753906 50.832031 181.789062 53.707031 190.574219 C 56.007812 197.605469 54.375 205.328125 50.90625 211.683594 C 49.304688 214.617188 47.226562 217.195312 45.351562 219.945312 C 45.117188 220.289062 44.800781 220.6875 44.753906 221.113281 C 44.644531 222.140625 45.726562 223.34375 46.78125 223.289062 C 47.589844 223.25 48.171875 222.472656 48.625 221.890625 C 49.734375 220.476562 50.828125 219.046875 51.785156 217.527344 C 55.894531 211.007812 58.46875 203.074219 57.726562 195.324219 C 57.402344 191.941406 56.507812 188.527344 54.753906 185.585938 C 53.070312 182.765625 50.949219 180.105469 48.875 177.5625 C 47.0625 175.34375 45.195312 173.167969 43.988281 170.550781 C 39.957031 161.8125 43.144531 152.261719 47.230469 144.140625 C 48.398438 141.820312 49.726562 139.640625 51.101562 137.441406 C 51.6875 136.496094 52.316406 135.082031 53.199219 134.402344 C 53.933594 136.074219 55.34375 137.722656 56.46875 139.152344 C 59.050781 142.429688 61.898438 145.429688 65.015625 148.203125 C 69.09375 151.824219 73.398438 155.167969 78.246094 157.710938 C 92.375 165.132812 109.644531 166.625 124.734375 161.410156 Z M 52.339844 127.53125 C 50.628906 127.738281 50.238281 125.082031 52.023438 124.921875 C 53.636719 124.777344 53.945312 127.335938 52.339844 127.53125 Z M 201.515625 133.039062 C 199.296875 133.375 198.875 129.804688 201.125 129.441406 C 203.433594 129.066406 203.863281 132.683594 201.515625 133.039062 Z M 211.378906 121.703125 C 209.09375 121.703125 209.050781 118.097656 211.300781 118.097656 C 213.734375 118.097656 213.820312 121.703125 211.378906 121.703125 Z M 217.953125 110.253906 C 215.867188 110.5625 215.484375 107.269531 217.40625 106.925781 C 219.714844 106.511719 220.316406 109.902344 217.953125 110.253906 Z M 223.511719 79.222656 C 225.230469 79.222656 225.078125 81.941406 223.433594 81.871094 C 221.785156 81.800781 221.820312 79.21875 223.511719 79.222656 Z M 223.121094 86.359375 C 225.101562 86.167969 225.363281 89.433594 223.355469 89.585938 C 221.289062 89.742188 220.976562 86.566406 223.121094 86.359375 Z M 221.710938 99.214844 C 219.671875 99.601562 218.945312 96.386719 221.007812 96.019531 C 223.125 95.640625 223.851562 98.816406 221.710938 99.214844 Z M 171.382812 84.019531 C 173.179688 83.777344 173.4375 86.421875 171.695312 86.628906 C 170.011719 86.832031 169.746094 84.234375 171.382812 84.019531 Z M 163.164062 91.1875 C 165.003906 90.824219 165.507812 93.636719 163.714844 93.929688 C 162.125 94.191406 161.597656 91.503906 163.164062 91.1875 Z M 155.417969 99.367188 C 157.226562 99.074219 157.609375 102.019531 155.816406 102.332031 C 154.121094 102.632812 153.625 99.660156 155.417969 99.367188 Z M 147.746094 107.003906 C 149.492188 106.699219 150.023438 109.285156 148.296875 109.617188 C 146.5 109.964844 145.910156 107.320312 147.746094 107.003906 Z M 140.546875 112.304688 C 141.953125 112.222656 142.023438 114.574219 140.625 114.640625 C 139.058594 114.71875 138.964844 112.398438 140.546875 112.304688 Z M 131.46875 111.375 C 133.234375 111.214844 133.265625 113.890625 131.546875 114.054688 C 129.6875 114.230469 129.644531 111.535156 131.46875 111.375 Z M 121.058594 108.59375 C 122.828125 108.625 122.957031 111.59375 121.136719 111.539062 C 119.347656 111.484375 119.191406 108.5625 121.058594 108.59375 Z M 109.707031 105.445312 C 111.46875 105.109375 112.128906 107.847656 110.339844 108.164062 C 108.75 108.449219 108.0625 105.761719 109.707031 105.445312 Z M 99.378906 103.1875 C 101.042969 102.984375 101.398438 105.683594 99.613281 105.847656 C 97.867188 106.003906 97.632812 103.402344 99.378906 103.1875 Z M 56.25 134.152344 C 54.210938 134.355469 53.917969 131.121094 56.015625 130.921875 C 58.058594 130.726562 58.195312 133.957031 56.25 134.152344 Z M 62.589844 141.632812 C 60.472656 141.804688 60.34375 138.527344 62.433594 138.324219 C 64.558594 138.113281 64.726562 141.460938 62.589844 141.632812 Z M 71.277344 149.394531 C 69.257812 149.757812 68.738281 146.417969 70.730469 146.035156 C 72.992188 145.601562 73.667969 148.96875 71.277344 149.394531 Z M 82.628906 156.121094 C 80.246094 156.40625 79.847656 152.804688 82.160156 152.5 C 84.40625 152.203125 84.988281 155.839844 82.628906 156.121094 Z M 96.949219 160.941406 C 94.660156 161.214844 94.300781 157.644531 96.558594 157.328125 C 98.828125 157.015625 99.257812 160.667969 96.949219 160.941406 Z M 86.226562 151.558594 C 83.1875 150.429688 80.175781 149.199219 77.382812 147.53125 C 72.9375 144.878906 68.90625 141.152344 65.253906 137.515625 C 62.742188 135.019531 60.269531 132.582031 57.972656 129.882812 C 57.371094 129.171875 56.828125 128.398438 56.320312 127.625 C 56.144531 127.359375 55.855469 127.023438 55.902344 126.6875 C 56.042969 125.691406 57.46875 124.457031 58.109375 123.726562 C 60.539062 120.945312 63.632812 118.527344 66.738281 116.523438 C 75.105469 111.132812 84.507812 107.703125 94.601562 108.074219 C 99.097656 108.238281 103.570312 109.203125 107.910156 110.339844 C 115.792969 112.40625 123.484375 114.859375 131.546875 116.203125 C 133.730469 116.566406 135.90625 116.800781 138.105469 116.960938 C 139.3125 117.050781 140.546875 117.238281 141.71875 116.890625 C 142.648438 116.617188 143.589844 115.824219 144.382812 115.28125 C 146.046875 114.140625 147.664062 112.957031 149.234375 111.6875 C 155.363281 106.730469 160.699219 101.058594 166.230469 95.46875 C 169.386719 92.277344 172.726562 89.148438 176.472656 86.648438 C 180.296875 84.089844 184.730469 82.171875 189.152344 80.914062 C 192.226562 80.035156 195.289062 79.726562 198.441406 79.355469 C 199.703125 79.203125 201.03125 79.320312 202.300781 79.320312 C 206.605469 79.320312 210.78125 79.84375 214.980469 80.769531 C 216.367188 81.074219 217.746094 81.53125 219.050781 82.09375 C 219.445312 82.265625 220.199219 82.429688 220.457031 82.796875 C 220.851562 83.363281 220.425781 84.828125 220.382812 85.476562 C 220.179688 88.429688 219.207031 91.269531 218.519531 94.125 C 217.152344 99.796875 215.3125 105.75 212.632812 110.949219 C 209.632812 116.773438 204.839844 122.199219 199.953125 126.519531 C 189.664062 135.613281 176.015625 139.136719 162.640625 140.375 C 159.507812 140.667969 156.375 140.867188 153.226562 140.867188 C 151.535156 140.867188 149.558594 140.453125 147.902344 140.90625 C 146.382812 141.320312 145.011719 142.503906 143.675781 143.292969 C 141.339844 144.679688 138.9375 145.882812 136.476562 147.039062 C 127.257812 151.375 117.46875 154.832031 107.207031 155.175781 C 99.960938 155.421875 92.992188 154.074219 86.226562 151.558594 Z M 86.226562 151.558594 " fill-opacity="1" fill-rule="nonzero"/></g><path fill="#737373" d="M 243.3125 226.996094 C 241.890625 227.339844 242.46875 229.429688 243.859375 229.09375 C 245.285156 228.753906 244.769531 226.644531 243.3125 226.996094 Z M 243.3125 226.996094 " fill-opacity="1" fill-rule="nonzero"/><path fill="#737373" d="M 236.503906 222.484375 C 234.867188 222.570312 235.03125 224.984375 236.660156 224.84375 C 238.167969 224.710938 238.027344 222.40625 236.503906 222.484375 Z M 236.503906 222.484375 " fill-opacity="1" fill-rule="nonzero"/><g clip-path="url(#585a0a51ec)"><path fill="#737373" d="M 329.980469 290.683594 C 326.609375 284.496094 326.367188 276.777344 328.289062 270.117188 C 329.71875 265.164062 332.207031 260.617188 333.710938 255.703125 C 335.132812 251.046875 335.730469 245.910156 335.265625 241.054688 C 334.53125 233.378906 331.988281 225.785156 328.003906 219.164062 C 326.894531 217.320312 325.609375 215.578125 324.210938 213.945312 C 323.660156 213.300781 322.515625 212.53125 322.207031 211.761719 C 322.015625 211.277344 322.875 210.171875 323.101562 209.738281 C 323.808594 208.390625 324.507812 206.878906 324.769531 205.375 C 324.871094 204.792969 324.988281 204.039062 324.621094 203.519531 C 323.996094 202.628906 322.273438 201.960938 321.347656 201.386719 C 318.8125 199.820312 316.289062 198.234375 313.753906 196.667969 C 301.503906 189.121094 287.902344 183.75 273.289062 184.109375 C 264.960938 184.3125 256.882812 186.957031 248.792969 188.675781 C 246.046875 189.257812 243.21875 189.761719 240.417969 189.957031 C 238.972656 190.054688 237.378906 190.226562 235.957031 189.878906 C 229.566406 188.328125 224.519531 183.160156 219.832031 178.816406 C 217.367188 176.527344 215.011719 174.109375 212.476562 171.898438 C 208.082031 168.070312 203.296875 164.765625 197.996094 162.316406 C 186.578125 157.035156 173.472656 155.832031 161.054688 156.519531 C 158.292969 156.675781 155.53125 156.65625 152.769531 156.769531 C 151.90625 156.804688 150.417969 156.578125 149.71875 157.144531 C 149.089844 157.652344 148.890625 158.589844 148.714844 159.332031 C 148.25 161.265625 148.136719 163.34375 148.136719 165.332031 C 146.800781 165.511719 145.398438 166.070312 144.148438 166.5625 C 141.574219 167.566406 139.128906 168.792969 136.789062 170.261719 C 127.613281 176.019531 119.707031 184.664062 116.574219 195.167969 C 114.40625 202.445312 114.898438 210.222656 111.867188 217.292969 C 109.617188 222.546875 105.742188 227.6875 100.550781 230.363281 C 98.40625 231.46875 96.15625 232.308594 93.898438 233.15625 C 92.855469 233.546875 91.519531 233.820312 90.613281 234.476562 C 89.542969 235.246094 90.160156 237.023438 91.394531 237.214844 C 92.191406 237.339844 92.921875 236.972656 93.664062 236.75 C 95.519531 236.191406 97.28125 235.453125 98.984375 234.535156 C 100.578125 233.679688 102.292969 232.902344 103.761719 231.839844 C 108.15625 228.65625 111.492188 224.171875 113.660156 219.242188 C 115.304688 215.507812 116.742188 211.578125 117.5 207.554688 C 117.949219 205.15625 118.097656 202.714844 118.523438 200.3125 C 118.953125 197.898438 119.722656 195.433594 120.59375 193.144531 C 123.640625 185.140625 130.515625 178.726562 137.414062 173.921875 C 140.699219 171.636719 144.300781 169.457031 148.136719 168.214844 C 148.585938 170.082031 148.320312 172.277344 148.464844 174.199219 C 148.765625 178.277344 149.402344 182.425781 150.519531 186.367188 C 152.707031 194.085938 155.632812 202.015625 160.851562 208.257812 C 164.488281 212.609375 169.257812 215.507812 174.359375 217.863281 C 180.171875 220.554688 186.015625 222.386719 192.4375 222.8125 C 200.558594 223.351562 208.894531 223.167969 216.992188 222.417969 C 219.292969 222.207031 221.570312 221.785156 223.824219 221.285156 C 224.46875 221.140625 225.851562 220.464844 226.472656 220.730469 C 226.890625 220.90625 227.265625 221.421875 227.582031 221.734375 C 228.296875 222.445312 229.027344 223.128906 229.785156 223.796875 C 231.9375 225.691406 234.320312 227.390625 236.738281 228.9375 C 241.628906 232.066406 246.542969 235.117188 251.6875 237.820312 C 254.976562 239.550781 258.292969 241.21875 261.863281 242.300781 C 265.917969 243.527344 270.253906 243.96875 274.464844 244.257812 C 277.066406 244.433594 279.773438 244.570312 282.367188 244.21875 C 294.59375 242.554688 304.929688 234.082031 312.808594 225.082031 C 315.050781 222.523438 316.957031 219.738281 318.828125 216.90625 C 319.269531 216.234375 319.710938 215.5625 320.128906 214.878906 C 320.234375 214.707031 320.4375 214.28125 320.699219 214.40625 C 320.96875 214.53125 321.183594 214.960938 321.363281 215.191406 C 321.902344 215.882812 322.390625 216.601562 322.890625 217.316406 C 324.988281 220.324219 326.582031 223.457031 328.066406 226.800781 C 330.988281 233.382812 333.117188 241.472656 332.046875 248.691406 C 331.609375 251.664062 330.882812 254.675781 329.835938 257.496094 C 328.988281 259.78125 327.855469 261.949219 327.105469 264.273438 C 325.265625 269.984375 324.152344 276.5 324.726562 282.503906 C 325.285156 288.375 327.910156 293.800781 331.433594 298.472656 C 332.304688 299.628906 333.558594 301.507812 334.886719 302.160156 C 335.753906 302.585938 336.9375 302.042969 337.1875 301.121094 C 337.496094 299.976562 336.121094 298.886719 335.484375 298.085938 C 333.578125 295.675781 331.457031 293.398438 329.980469 290.683594 Z M 245.425781 208.433594 C 246.535156 207.535156 247.730469 206.746094 248.949219 206.003906 C 253.984375 202.929688 260.398438 200.625 266.332031 200.234375 C 271.25 199.914062 276.113281 200.152344 280.960938 201.140625 C 284.6875 201.902344 288.339844 202.910156 291.917969 204.210938 C 295.96875 205.6875 299.957031 207.539062 304.207031 208.414062 C 303.988281 209.316406 302.902344 210.097656 302.289062 210.765625 C 300.394531 212.835938 298.207031 214.722656 296.066406 216.535156 C 293.023438 219.117188 289.691406 221.605469 285.96875 223.125 C 278.78125 226.058594 270.328125 226.15625 263.035156 223.5 C 260.378906 222.527344 257.898438 221.132812 255.523438 219.609375 C 252.449219 217.628906 249.582031 215.4375 246.992188 212.855469 C 246.230469 212.09375 244.605469 210.703125 244.445312 209.585938 C 244.375 209.117188 245.113281 208.6875 245.425781 208.433594 Z M 302.820312 219.128906 C 301.144531 219.425781 300.871094 216.894531 302.484375 216.617188 C 304.160156 216.335938 304.441406 218.839844 302.820312 219.128906 Z M 236.660156 192.050781 L 242.058594 191.976562 C 241.949219 192.859375 242.09375 193.402344 242.375 194.234375 L 235.878906 194.234375 Z M 224.917969 218.929688 C 223.71875 219.027344 222.507812 219.421875 221.328125 219.652344 C 219.492188 220.007812 217.601562 220.257812 215.738281 220.398438 C 210.378906 220.800781 205.011719 220.941406 199.640625 220.878906 C 195.214844 220.828125 190.765625 220.78125 186.410156 219.910156 C 182.039062 219.03125 177.78125 217.230469 173.808594 215.253906 C 169.984375 213.347656 166.4375 211.15625 163.488281 208.023438 C 161.402344 205.8125 159.707031 203.203125 158.257812 200.542969 C 155.578125 195.621094 153.605469 190.09375 152.3125 184.652344 C 150.847656 178.46875 150.375 172.277344 150.269531 165.945312 C 150.242188 164.292969 150.339844 162.605469 150.566406 160.96875 C 150.636719 160.449219 150.691406 159.476562 151.046875 159.066406 C 151.261719 158.820312 151.914062 158.941406 152.207031 158.941406 C 153.179688 158.941406 154.21875 158.941406 155.183594 158.851562 C 159.457031 158.445312 163.878906 158.472656 168.175781 158.472656 C 178.21875 158.472656 188.707031 160.289062 197.839844 164.574219 C 204.121094 167.527344 209.691406 171.921875 214.589844 176.78125 C 216.6875 178.863281 218.863281 180.894531 221.085938 182.847656 C 221.777344 183.457031 223.398438 184.394531 223.667969 185.273438 C 222.730469 185.691406 222.527344 186.492188 222.257812 187.378906 C 221.441406 187.070312 220.742188 186.367188 220.042969 185.851562 C 218.574219 184.765625 217.160156 183.601562 215.753906 182.4375 C 210.972656 178.488281 206.386719 174.117188 201.203125 170.6875 C 195.28125 166.765625 188.546875 164.722656 181.636719 163.347656 C 177.203125 162.464844 172.757812 161.636719 168.253906 161.1875 C 164.191406 160.785156 160.121094 160.890625 156.042969 160.890625 C 154.871094 160.890625 153.605469 160.859375 152.441406 161.011719 C 152.074219 161.0625 151.679688 161 151.355469 161.214844 C 150.660156 161.667969 150.800781 162.378906 150.941406 163.070312 C 151.253906 164.613281 151.6875 166.144531 152.082031 167.667969 C 152.703125 170.066406 153.121094 172.515625 153.753906 174.914062 C 154.832031 178.988281 156.183594 182.972656 157.449219 186.988281 C 159.550781 193.636719 162.902344 200.113281 168.019531 204.980469 C 170.597656 207.4375 173.796875 209.222656 177.019531 210.695312 C 183.261719 213.546875 189.847656 215.054688 196.664062 215.722656 C 201.535156 216.199219 206.488281 216.101562 211.378906 216.207031 C 215.917969 216.300781 220.460938 216.828125 224.996094 216.828125 Z M 216.460938 202.0625 C 216.289062 202.359375 215.746094 202.527344 215.449219 202.664062 C 214.472656 203.121094 213.367188 203.472656 212.320312 203.730469 C 208.195312 204.730469 204.042969 205.296875 199.796875 205.296875 C 197.894531 205.296875 195.960938 205.351562 194.082031 205.039062 C 187.019531 203.867188 180.277344 200.515625 175.398438 195.238281 C 171.167969 190.664062 168.898438 184.816406 167.078125 178.964844 C 166.3125 176.503906 165.449219 173.972656 165.121094 171.40625 C 167.476562 171.597656 169.828125 172.574219 172.167969 172.953125 C 175.40625 173.480469 178.667969 173.863281 181.871094 174.574219 C 191.902344 176.808594 201.785156 181.210938 208.664062 189.015625 C 211.230469 191.929688 213.710938 195.101562 215.292969 198.675781 C 215.65625 199.5 216.03125 200.308594 216.300781 201.167969 C 216.378906 201.417969 216.613281 201.804688 216.460938 202.0625 Z M 159.878906 172.757812 C 161.949219 172.390625 162.71875 175.675781 160.582031 176.054688 C 158.378906 176.449219 157.742188 173.132812 159.878906 172.757812 Z M 158.3125 165.355469 C 161.035156 165.019531 161.46875 169.15625 158.703125 169.433594 C 156.160156 169.6875 155.871094 165.65625 158.3125 165.355469 Z M 161.523438 179.074219 C 163.121094 178.726562 163.730469 181.210938 162.148438 181.570312 C 160.542969 181.9375 159.902344 179.421875 161.523438 179.074219 Z M 225.9375 189.871094 L 225.9375 189.792969 C 226.566406 189.332031 227.070312 188.859375 227.269531 188.078125 L 228.988281 189.152344 L 231.964844 190.804688 L 231.574219 193.066406 C 229.65625 192.160156 227.65625 191.113281 225.9375 189.871094 Z M 316.335938 216.828125 C 312.078125 223.257812 306.835938 228.753906 300.761719 233.515625 C 296.605469 236.773438 291.964844 239.722656 286.828125 241.179688 C 279.8125 243.171875 271.710938 242.4375 264.679688 240.804688 C 259.859375 239.683594 255.542969 237.492188 251.21875 235.160156 C 246.164062 232.433594 241.257812 229.429688 236.503906 226.214844 C 234.417969 224.804688 232.304688 223.316406 230.476562 221.578125 C 230.074219 221.195312 228.824219 220.429688 228.75 219.867188 C 228.703125 219.507812 229.382812 218.476562 229.539062 218.074219 C 231.171875 218.75 232.738281 219.65625 234.3125 220.460938 C 240.945312 223.847656 247.371094 227.738281 254.113281 230.902344 C 260.773438 234.03125 267.800781 236.199219 275.167969 236.699219 C 277.859375 236.882812 280.636719 237 283.308594 236.503906 C 286.816406 235.847656 290.164062 234.480469 293.328125 232.855469 C 298.113281 230.394531 302.167969 226.777344 306.082031 223.144531 C 308.1875 221.195312 310.335938 219.273438 312.339844 217.21875 C 314.253906 215.253906 316.035156 213.15625 317.980469 211.21875 C 318.921875 210.28125 319.832031 209.308594 320.734375 208.332031 C 321.105469 207.929688 321.625 207.46875 321.457031 206.855469 C 321.328125 206.390625 320.859375 206.101562 320.484375 205.847656 C 319.597656 205.238281 318.648438 204.71875 317.746094 204.128906 C 313.851562 201.578125 309.582031 199.34375 305.300781 197.515625 C 301.5625 195.917969 297.738281 194.527344 293.875 193.269531 C 287.476562 191.195312 281.015625 189.578125 274.230469 189.875 C 267.5625 190.164062 260.917969 191.839844 254.347656 192.933594 C 251.863281 193.34375 249.289062 193.921875 246.757812 193.921875 C 246.957031 193.304688 247.136719 192.785156 246.972656 192.128906 C 246.921875 191.921875 246.609375 191.457031 246.808594 191.273438 C 247.03125 191.066406 247.640625 191.070312 247.929688 191.019531 C 248.792969 190.871094 249.660156 190.699219 250.511719 190.503906 C 253.859375 189.738281 257.191406 188.914062 260.53125 188.140625 C 266.976562 186.640625 273.40625 185.921875 280.019531 186.371094 C 283.152344 186.585938 286.3125 187.34375 289.335938 188.144531 C 295.304688 189.730469 301.0625 191.863281 306.476562 194.867188 C 310.691406 197.210938 314.707031 199.863281 318.839844 202.335938 C 319.765625 202.890625 320.65625 203.496094 321.582031 204.050781 C 321.871094 204.222656 322.492188 204.445312 322.628906 204.773438 C 322.828125 205.242188 322.34375 206.175781 322.179688 206.621094 C 320.824219 210.261719 318.46875 213.609375 316.335938 216.828125 Z M 306.789062 211.941406 C 308.921875 211.632812 309.386719 214.886719 307.335938 215.242188 C 305.132812 215.625 304.550781 212.269531 306.789062 211.941406 Z M 311.40625 206.335938 C 312.089844 206.214844 312.9375 206.332031 313.421875 206.863281 C 314.457031 207.992188 313.867188 210.019531 312.34375 210.324219 C 309.875 210.820312 308.867188 206.78125 311.40625 206.335938 Z M 311.40625 206.335938 " fill-opacity="1" fill-rule="nonzero"/></g><path fill="#737373" d="M 269.84375 187.117188 C 268.191406 187.3125 268.648438 189.710938 270.238281 189.464844 C 271.804688 189.222656 271.386719 186.929688 269.84375 187.117188 Z M 269.84375 187.117188 " fill-opacity="1" fill-rule="nonzero"/><path fill="#737373" d="M 257.324219 234.089844 C 255.953125 234.445312 256.589844 236.640625 257.949219 236.257812 C 259.390625 235.855469 258.703125 233.726562 257.324219 234.089844 Z M 257.324219 234.089844 " fill-opacity="1" fill-rule="nonzero"/><path fill="#737373" d="M 249.964844 230.582031 C 248.484375 230.96875 249.257812 233.246094 250.75 232.84375 C 252.257812 232.429688 251.421875 230.203125 249.964844 230.582031 Z M 249.964844 230.582031 " fill-opacity="1" fill-rule="nonzero"/><path fill="#737373" d="M 191.8125 216.636719 C 190.371094 217.050781 191.03125 219.101562 192.4375 218.730469 C 193.800781 218.375 193.214844 216.238281 191.8125 216.636719 Z M 191.8125 216.636719 " fill-opacity="1" fill-rule="nonzero"/><path fill="#737373" d="M 207.542969 217.414062 C 206.148438 217.746094 206.796875 219.941406 208.171875 219.589844 C 209.621094 219.214844 208.90625 217.089844 207.542969 217.414062 Z M 207.542969 217.414062 " fill-opacity="1" fill-rule="nonzero"/><path fill="#737373" d="M 262.878906 188.21875 C 261.460938 188.285156 261.375 190.472656 262.878906 190.414062 C 264.363281 190.355469 264.367188 188.148438 262.878906 188.21875 Z M 262.878906 188.21875 " fill-opacity="1" fill-rule="nonzero"/><path fill="#737373" d="M 199.875 217.179688 C 198.367188 217.539062 198.941406 219.847656 200.421875 219.496094 C 201.984375 219.128906 201.398438 216.820312 199.875 217.179688 Z M 199.875 217.179688 " fill-opacity="1" fill-rule="nonzero"/><path fill="#737373" d="M 255.054688 189.992188 C 253.800781 190.277344 254.15625 192.234375 255.445312 191.972656 C 256.710938 191.71875 256.335938 189.695312 255.054688 189.992188 Z M 255.054688 189.992188 " fill-opacity="1" fill-rule="nonzero"/><path fill="#737373" d="M 216.546875 219.382812 C 218.109375 218.925781 217.265625 216.675781 215.761719 217.105469 C 214.289062 217.527344 215.101562 219.808594 216.546875 219.382812 Z M 216.546875 219.382812 " fill-opacity="1" fill-rule="nonzero"/><g clip-path="url(#0426befd93)"><path fill="#f0f0f0" d="M 168.699219 257.546875 L 168.644531 264.019531 L 191.578125 264.214844 L 191.269531 301.125 C 184.910156 305.144531 177.765625 307.375 170.234375 307.320312 C 143.871094 307.09375 122.722656 278.804688 123.003906 244.101562 C 123.28125 209.394531 144.902344 181.46875 171.292969 181.691406 C 188.339844 181.832031 203.183594 193.6875 211.496094 211.429688 L 211.578125 202.644531 C 200.363281 185.710938 182.480469 174.6875 162.285156 174.523438 C 127.996094 174.242188 99.929688 205.292969 99.59375 243.90625 C 99.261719 282.515625 126.796875 314.042969 161.082031 314.347656 C 171.992188 314.433594 182.257812 311.335938 191.214844 305.867188 L 191.128906 314.601562 L 213.113281 314.796875 L 213.589844 257.9375 Z M 168.699219 257.546875 " fill-opacity="1" fill-rule="nonzero"/></g><g clip-path="url(#3b390b0fbf)"><path fill="#f0f0f0" d="M 184.875 37.511719 L 164.980469 37.511719 C 163.519531 37.511719 162.355469 38.675781 162.355469 40.136719 L 162.355469 41.6875 C 162.355469 43 163.25 44.132812 164.53125 44.402344 C 165.546875 44.609375 166.828125 44.9375 168.320312 45.414062 C 169.871094 45.921875 170.707031 47.59375 170.199219 49.113281 L 131.84375 162.929688 C 131.632812 163.5 130.828125 163.5 130.621094 162.929688 L 92.414062 49.5 C 91.933594 48.101562 92.589844 46.578125 93.902344 45.953125 C 95.097656 45.386719 96.527344 44.820312 98.078125 44.429688 C 99.300781 44.132812 100.167969 43 100.167969 41.746094 L 100.167969 40.164062 C 100.167969 38.703125 99.003906 37.542969 97.542969 37.542969 L 58.769531 37.542969 C 57.308594 37.511719 56.144531 38.675781 56.144531 40.136719 L 56.144531 41.6875 C 56.144531 43 57.039062 44.132812 58.320312 44.402344 C 59.542969 44.667969 61.183594 45.085938 63.035156 45.742188 C 64.882812 46.398438 66.34375 47.890625 67 49.769531 L 117.675781 200.183594 C 118.152344 201.617188 119.496094 202.570312 120.984375 202.570312 L 123.164062 202.570312 C 124.65625 202.570312 125.996094 201.617188 126.472656 200.183594 L 177.121094 49.917969 C 177.835938 47.742188 179.566406 46.070312 181.742188 45.355469 C 182.847656 44.996094 184.070312 44.667969 185.320312 44.402344 C 186.605469 44.132812 187.5 43 187.5 41.6875 L 187.5 40.136719 C 187.5 38.675781 186.304688 37.511719 184.875 37.511719 Z M 184.875 37.511719 " fill-opacity="1" fill-rule="nonzero"/></g><g clip-path="url(#c7f5272bfd)"><path fill="#f0f0f0" d="M 230.453125 95.792969 C 251.710938 95.792969 261.746094 106.132812 266.363281 122.054688 L 274.519531 122.054688 L 274.519531 90.566406 L 156.46875 90.566406 L 156.46875 95.792969 L 170.488281 95.792969 L 170.488281 223.90625 L 156.46875 223.90625 L 156.46875 229.128906 L 274.546875 229.128906 L 274.546875 197.640625 L 266.390625 197.640625 C 261.746094 213.566406 251.710938 223.90625 230.480469 223.90625 L 192.246094 223.90625 L 192.246094 158.21875 L 233.546875 158.21875 L 233.546875 150.671875 L 192.246094 150.671875 L 192.246094 95.792969 Z M 230.453125 95.792969 " fill-opacity="1" fill-rule="nonzero"/></g></svg>