<svg xmlns="http://www.w3.org/2000/svg" xmlns:xlink="http://www.w3.org/1999/xlink" width="500" zoomAndPan="magnify" viewBox="0 0 375 374.999991" height="500" preserveAspectRatio="xMidYMid meet" version="1.0"><path fill="#ffc857" d="M 335.179688 119.167969 C 327.714844 99.347656 302.695312 65.261719 261.382812 78.144531 C 245.699219 83.023438 234.894531 91.90625 229.257812 104.550781 C 216.992188 132.085938 230.480469 171.726562 259.671875 235.238281 C 270.253906 258.277344 271.089844 276.414062 267.839844 290.308594 C 264.132812 281.675781 258.578125 273.5 251.136719 265.945312 C 239.964844 254.609375 228.242188 245.082031 216.910156 235.871094 C 186.066406 210.792969 160.886719 190.210938 161.753906 146.875 C 180.070312 135.078125 192.050781 115.957031 192.050781 94.351562 C 192.050781 87.960938 190.964844 81.800781 189.019531 75.960938 C 189.015625 75.890625 189.066406 75.828125 189.054688 75.757812 L 178.546875 7.378906 C 177.976562 3.675781 175.089844 0.886719 171.367188 0.4375 C 167.707031 0.0234375 164.183594 2.015625 162.746094 5.480469 L 150.203125 35.753906 C 140.753906 31.769531 130.238281 29.472656 119.105469 29.472656 C 107.964844 29.472656 97.449219 31.769531 88 35.753906 L 75.460938 5.488281 C 74.027344 2.015625 70.503906 0.0273438 66.839844 0.4375 C 63.117188 0.886719 60.230469 3.675781 59.65625 7.386719 L 49.152344 75.757812 C 49.140625 75.828125 49.191406 75.890625 49.183594 75.960938 C 47.238281 81.800781 46.152344 87.960938 46.152344 94.351562 C 46.152344 117.457031 59.84375 137.722656 80.351562 149.21875 C 78.554688 163.707031 73.257812 199.152344 60.578125 239.722656 C 47.570312 281.347656 42.65625 312.828125 58.359375 341.089844 C 70.121094 362.285156 92.699219 374.941406 118.753906 374.941406 L 218.859375 374.941406 C 243.570312 374.941406 264.992188 358.441406 270.957031 334.816406 C 271.113281 334.179688 271.167969 333.558594 271.3125 332.921875 C 287.75 314.949219 306.554688 279.953125 281.421875 225.242188 C 261.839844 182.625 241.734375 135.382812 251.121094 114.292969 C 252.875 110.363281 256.582031 104.707031 268.5 100.996094 C 297.992188 91.832031 311.359375 123.949219 312.769531 127.597656 C 315.101562 133.785156 322.027344 136.902344 328.1875 134.585938 C 334.378906 132.253906 337.503906 125.351562 335.179688 119.167969 " fill-opacity="1" fill-rule="nonzero"/></svg>