<svg xmlns="http://www.w3.org/2000/svg" xmlns:xlink="http://www.w3.org/1999/xlink" width="500" zoomAndPan="magnify" viewBox="0 0 375 374.999991" height="500" preserveAspectRatio="xMidYMid meet" version="1.0"><path fill="#ffc857" d="M 375 187.5 C 375 291.054688 291.054688 375 187.5 375 C 83.945312 375 0 291.054688 0 187.5 C 0 83.945312 83.945312 0 187.5 0 C 291.054688 0 375 83.945312 375 187.5 Z M 209.722656 109.722656 L 204.167969 109.722656 L 204.167969 87.5 L 209.722656 87.5 C 228.132812 87.5 243.054688 102.425781 243.054688 120.832031 L 243.054688 159.722656 C 243.054688 163.21875 244.703125 166.511719 247.5 168.609375 L 260.832031 178.609375 C 263.503906 180.613281 265.128906 183.707031 265.269531 187.039062 C 265.40625 190.371094 264.042969 193.589844 261.546875 195.804688 L 246.785156 208.921875 C 244.414062 211.03125 243.054688 214.054688 243.054688 217.230469 L 243.054688 254.167969 C 243.054688 272.578125 228.132812 287.5 209.722656 287.5 L 204.167969 287.5 L 204.167969 265.277344 L 209.722656 265.277344 C 215.859375 265.277344 220.832031 260.304688 220.832031 254.167969 L 220.832031 217.230469 C 220.832031 207.707031 224.90625 198.640625 232.023438 192.3125 L 236.621094 188.230469 L 234.167969 186.390625 C 225.773438 180.09375 220.832031 170.214844 220.832031 159.722656 L 220.832031 120.832031 C 220.832031 114.695312 215.859375 109.722656 209.722656 109.722656 Z M 170.832031 109.722656 L 165.277344 109.722656 C 159.140625 109.722656 154.167969 114.695312 154.167969 120.832031 L 154.167969 159.722656 C 154.167969 170.214844 149.226562 180.09375 140.832031 186.390625 L 138.382812 188.230469 L 142.976562 192.3125 C 150.09375 198.640625 154.167969 207.707031 154.167969 217.230469 L 154.167969 254.167969 C 154.167969 260.304688 159.140625 265.277344 165.277344 265.277344 L 170.832031 265.277344 L 170.832031 287.5 L 165.277344 287.5 C 146.867188 287.5 131.945312 272.578125 131.945312 254.167969 L 131.945312 217.230469 C 131.945312 214.054688 130.585938 211.03125 128.214844 208.921875 L 113.453125 195.804688 C 110.960938 193.589844 109.59375 190.371094 109.734375 187.039062 C 109.871094 183.707031 111.5 180.613281 114.167969 178.609375 L 127.5 168.609375 C 130.296875 166.511719 131.945312 163.21875 131.945312 159.722656 L 131.945312 120.832031 C 131.945312 102.425781 146.867188 87.5 165.277344 87.5 L 170.832031 87.5 Z M 170.832031 109.722656 " fill-opacity="1" fill-rule="evenodd"/></svg>