<svg xmlns="http://www.w3.org/2000/svg" xmlns:xlink="http://www.w3.org/1999/xlink" width="500" zoomAndPan="magnify" viewBox="0 0 375 374.999991" height="500" preserveAspectRatio="xMidYMid meet" version="1.0"><defs><g/><clipPath id="ecfa3fe964"><path d="M 20.246094 0 L 354.746094 0 L 354.746094 375 L 20.246094 375 Z M 20.246094 0 " clip-rule="nonzero"/></clipPath><clipPath id="6b578bba98"><rect x="0" width="277" y="0" height="183"/></clipPath></defs><g clip-path="url(#ecfa3fe964)"><path fill="#ffc857" d="M 354.730469 356.414062 C 354.558594 357.660156 354.683594 357.042969 354.148438 359.210938 C 353.78125 359.910156 353.917969 359.625 353.558594 360.445312 C 353.628906 360.589844 353.601562 360.40625 353.679688 361.535156 C 353.429688 362.773438 353.597656 362.234375 352.882812 363.945312 C 352.316406 365.261719 352.5625 364.902344 351.273438 366.71875 C 350.53125 367.335938 350.832031 367.109375 349.945312 367.710938 C 348.492188 368.140625 349.128906 367.914062 347.101562 368.734375 C 346.308594 370.277344 346.5625 369.894531 345.972656 370.496094 C 344.808594 371.347656 345.164062 371.128906 344.382812 371.496094 C 343.363281 371.816406 343.703125 371.613281 342.917969 372.4375 C 342.488281 372.761719 342.785156 372.570312 341.601562 373.277344 C 340.308594 373.777344 341.527344 373.542969 336.421875 373.941406 C 305.679688 374.378906 248.164062 374.539062 248.15625 374.539062 C 237.929688 374.328125 240.769531 374.640625 234.640625 373.796875 C 229.367188 373.5 229.910156 373.511719 228.769531 373.074219 C 227.03125 371.769531 229.566406 373.425781 221.371094 369.613281 C 218.324219 368.5625 218.925781 368.816406 218.210938 368.386719 C 215.925781 367.582031 216.667969 367.832031 214.910156 367.277344 C 209.28125 366.164062 211.992188 366.257812 209.742188 366.1875 C 202.773438 364.058594 209.476562 365.625 199.761719 363.425781 C 194.925781 361.554688 196.707031 361.976562 186.921875 359.878906 C 183.050781 359.429688 184.183594 359.628906 180.214844 358.746094 C 177.398438 358.113281 177.828125 358.613281 173.730469 357.777344 C 167.753906 356.851562 165.839844 356.226562 165.53125 356.175781 C 158.585938 354.441406 148.65625 351.085938 141.613281 348.152344 C 137.972656 346.957031 137.800781 346.804688 135.894531 346.75 C 132.859375 344.46875 134.863281 345.566406 132.378906 344.148438 C 117.695312 337.019531 117.449219 336.320312 110.21875 331.46875 C 99.332031 324.398438 101.425781 326.324219 94.75 320.476562 C 93.199219 318.363281 95.148438 320.976562 91.191406 316.828125 C 85.742188 311.558594 86.535156 311.09375 82.027344 305.191406 C 78.964844 300.402344 79.527344 300.980469 79.070312 300.859375 C 77.601562 300.035156 77.902344 300.210938 77.109375 299.390625 C 76.34375 298.167969 76.472656 298.398438 76.382812 298.160156 L 76.003906 297.792969 C 75.019531 298.140625 75.800781 297.886719 74.714844 298.046875 C 74.234375 300.15625 74.523438 298.726562 74.125 300.003906 C 73.671875 300.613281 73.871094 300.464844 73.277344 300.6875 C 72.902344 301.792969 72.757812 301.992188 72.550781 305.164062 C 70.039062 313.398438 70.390625 310.007812 68.53125 318.28125 C 67.753906 321.054688 68.070312 320.042969 67.128906 322.679688 C 64.675781 331.816406 64.730469 332.195312 64.5 336.742188 C 64.839844 339.054688 64.699219 338.058594 65.132812 341.1875 C 65.957031 343.421875 65.632812 342.699219 66.546875 344.40625 C 67.839844 347.089844 67.320312 346.109375 68.792969 348.707031 C 68.335938 348.402344 68.058594 347.953125 70.492188 351.105469 C 73.042969 354.710938 73.511719 354.484375 75.253906 357.285156 C 76.4375 358.660156 76.144531 358.390625 76.640625 358.695312 C 78.355469 359.324219 77.769531 359.234375 79.230469 359.160156 C 81.839844 359.082031 81.074219 358.992188 82.671875 359.5 C 84.246094 360.453125 83.453125 359.847656 86.273438 362.300781 C 87.410156 363.472656 87.199219 363.246094 87.40625 363.488281 C 89.523438 366.660156 90.019531 368.261719 90.339844 369.078125 C 90.394531 370.402344 90.511719 369.917969 89.535156 372.652344 C 87.613281 375.003906 86.640625 374.425781 60.394531 374.515625 C 56.648438 374.488281 56.082031 374.609375 52.109375 373.890625 C 50.628906 373.734375 51.164062 373.828125 49.777344 373.453125 C 47.539062 372.375 47.160156 371.605469 45.90625 369.792969 C 44.863281 367.78125 45.191406 368.589844 44.515625 366.242188 C 43.34375 360.199219 43.4375 360.675781 43.410156 360.566406 C 41.167969 354.039062 42.109375 356.105469 39.375 347.179688 C 37.554688 341.847656 37.921875 342.734375 37.453125 342.058594 C 35.640625 338.539062 36.128906 339.5625 35.238281 337.433594 C 32.121094 331.0625 32.25 331.355469 32.039062 329.558594 C 32.121094 328.535156 32.1875 328.921875 31.691406 327.871094 C 29.851562 323.847656 30.851562 319.796875 31.613281 316.414062 C 32.433594 312.585938 32.257812 314.128906 32.582031 308.996094 C 32.628906 306.742188 32.523438 304.191406 32.621094 302.117188 C 32.761719 296.21875 32.53125 295.648438 32.0625 293.078125 C 31.296875 286.824219 31.964844 289.363281 31.273438 286.597656 C 30.84375 284.984375 31.140625 285.835938 29.894531 282.710938 C 29.359375 280.566406 29.511719 281.484375 29.253906 278.621094 C 28.785156 276.757812 28.511719 275.542969 27.761719 273.386719 C 26.226562 268.253906 27.097656 271.40625 25.589844 263.136719 C 23.714844 254.539062 25.480469 260.113281 23.339844 249.910156 C 20.261719 231.210938 20.757812 231.453125 20.5 226.015625 C 20.261719 224.496094 20.492188 223.453125 20.519531 220.082031 C 21.214844 214.511719 21.078125 215.472656 21.535156 214.140625 C 22.390625 211.355469 21.996094 212.476562 23.296875 209.191406 C 27.523438 196.671875 24.902344 203.945312 32.664062 192.488281 C 38.203125 185.238281 36.3125 187.753906 39.035156 182.933594 C 40.578125 179.128906 40.214844 180.347656 40.726562 177.53125 C 40.730469 173.574219 40.640625 175.757812 40.8125 172.792969 C 40.492188 170.371094 40.710938 171.339844 39.78125 168.519531 C 38.679688 165.453125 39.074219 166.355469 38.046875 164.453125 C 36.820312 161.441406 37.167969 162.382812 36.472656 160.25 C 35.066406 157.035156 35.660156 157.625 33.871094 152.335938 C 33.652344 150.515625 33.804688 151.34375 33.15625 148.617188 C 32.933594 146.8125 31.160156 137.117188 31.15625 137.109375 C 30.480469 135.0625 30.25 132.671875 29.410156 125.671875 C 28.214844 114.253906 28.183594 117.316406 27.058594 109.75 C 26.515625 104.804688 26.59375 106.132812 26.640625 104.109375 C 26.46875 101.9375 26.558594 102.691406 26.265625 100.78125 C 24.914062 90.765625 25.390625 87.769531 25.820312 79.628906 C 26.40625 72.378906 26.179688 80.320312 26.476562 67.550781 C 28.417969 55.25 27.78125 58.980469 30.1875 50.546875 C 30.90625 48.222656 30.382812 49.25 35.667969 38.316406 C 39.363281 31.582031 38.441406 33.105469 41.390625 28.78125 C 46.605469 21.703125 46.058594 22.375 46.507812 22.1875 C 52.042969 16.09375 48.589844 19.902344 56.609375 12.34375 C 62.382812 7.996094 60.324219 9.042969 68.800781 3.613281 C 76.9375 0.00390625 76.441406 0.382812 79.777344 0.308594 C 81.660156 0.339844 81.660156 0.183594 83.78125 1.21875 C 85.101562 1.851562 84.566406 1.519531 86.148438 2.738281 C 87.585938 4.050781 87.03125 3.503906 88.582031 5.164062 C 89.699219 6.6875 89.40625 6.195312 89.925781 7.351562 C 90.121094 7.777344 90.054688 7.511719 90.164062 8.464844 C 89.828125 9.925781 89.984375 10.09375 86.808594 13.320312 C 85.183594 14.46875 86.199219 13.644531 82.402344 16.960938 C 80.777344 18.585938 81.410156 18.003906 79.644531 19.527344 C 72.3125 25.035156 76.402344 22.183594 72.503906 24.914062 C 70.675781 26.699219 64.371094 32.136719 61.734375 36.746094 C 59.910156 41.363281 60.863281 39.488281 59.515625 41.796875 C 58.527344 43.304688 59.027344 42.402344 57.261719 45.945312 C 55.953125 48.386719 56.542969 46.980469 54.625 52.402344 C 51.285156 65.660156 51.507812 67.136719 50.78125 78.542969 C 50.78125 81.226562 50.742188 80.261719 50.921875 82.761719 C 50.941406 91.636719 51.472656 86.300781 51.292969 94.0625 C 51.535156 98.089844 52.050781 99.136719 52.742188 103.386719 C 53.195312 108.039062 53.585938 108.441406 53.59375 111.234375 C 53.71875 112.980469 54.40625 115.046875 54.28125 117.5 C 54.398438 118.554688 54.269531 117.875 54.925781 120.554688 C 55.253906 122.515625 55.167969 122.101562 55.328125 122.667969 C 58.515625 135.484375 56.527344 128.011719 58.34375 135.25 C 61.179688 143.824219 60.757812 142.5 62.832031 147.007812 C 66.492188 153.035156 64.925781 151.6875 68.597656 157.242188 C 69.539062 158.882812 69.082031 158.199219 70.675781 160.269531 C 72.960938 162.730469 72.050781 161.925781 74.628906 163.828125 C 77.816406 165.433594 76.03125 164.65625 81.101562 166.449219 C 85.808594 168.027344 84.308594 167.296875 88.523438 169.605469 C 89.671875 170.421875 89.015625 170.070312 91.519531 171.164062 C 102.488281 177.214844 96.429688 173.328125 103.328125 177.371094 C 105.234375 178.441406 105.945312 178.671875 107.96875 180.117188 C 109.246094 180.828125 113.683594 183.316406 115.253906 184.449219 C 120.855469 188.910156 117.410156 185.632812 123.019531 190.851562 C 128.507812 197.71875 125.726562 193.457031 130.941406 200.691406 C 134.46875 205.4375 134.1875 205.0625 135.730469 208.328125 C 139.023438 214.074219 138.839844 214.945312 143.238281 224.386719 C 147.746094 235.757812 146.898438 235.152344 149.011719 240.636719 C 149.945312 242.625 149.601562 241.828125 150.523438 244.09375 C 152.195312 247.707031 153.492188 248.820312 155.996094 251.460938 C 158.273438 253.679688 158.195312 253.601562 158.203125 253.609375 C 161.273438 256.027344 160.417969 255.421875 161.792969 256.234375 C 168.003906 260.507812 166.136719 259.730469 170.3125 261.085938 C 172.953125 261.769531 173.199219 262.050781 176.011719 261.253906 C 179.429688 261.285156 180.839844 260.988281 184.648438 260.835938 C 186.71875 260.695312 186.039062 260.652344 187.652344 260.972656 C 189.464844 261.066406 188.453125 261.0625 192.277344 260.953125 C 194.433594 261.261719 193.605469 261.039062 195.90625 261.996094 C 197.652344 262.765625 197.050781 262.550781 199.933594 263.496094 C 200.875 263.550781 200.453125 263.632812 201.8125 263.066406 C 203.082031 262.53125 202.578125 262.773438 204.027344 261.984375 C 206.851562 259.511719 206.335938 259.972656 207.253906 259 C 207.15625 257.238281 206.667969 252.347656 208.113281 248.332031 C 208.984375 246.203125 208.535156 247.585938 209.925781 242.453125 C 210.691406 237.726562 211.75 234.21875 213.019531 229.957031 C 214.039062 227.210938 213.605469 228.1875 214.957031 225.707031 C 216.316406 223.871094 215.824219 224.421875 217.113281 223.230469 C 219.484375 221.847656 219.761719 221.503906 221.769531 219.476562 C 222.863281 218.457031 222.558594 218.683594 223.105469 218.4375 C 223.46875 218.320312 223.320312 218.304688 223.765625 218.539062 C 224.632812 219.015625 224.320312 218.75 225.117188 219.753906 C 225.296875 220.015625 225.125 219.6875 226.070312 221.667969 C 227.265625 224.824219 226.730469 224.535156 227.695312 228.988281 C 227.824219 230.855469 227.78125 230.527344 227.882812 230.792969 C 228.625 232.023438 228.371094 231.660156 229.003906 232.425781 C 230.003906 234.109375 229.113281 232.230469 231.636719 236.140625 C 232.347656 236.996094 231.710938 236.351562 234.460938 238.105469 C 236.867188 239.824219 236.671875 239.738281 240.269531 239.996094 C 243.34375 239.789062 240.460938 240.253906 245.1875 239.429688 C 249.390625 238.964844 254.859375 238.292969 259.199219 238.707031 C 260.734375 238.75 260.496094 238.738281 260.640625 238.761719 C 262.414062 239.25 261.53125 238.902344 264.648438 240.375 C 271.453125 243.851562 265.394531 241.132812 272.550781 244.667969 C 276.566406 245.933594 274.277344 245.183594 284.347656 246.554688 C 288.167969 246.941406 288.039062 247.027344 288.710938 247.382812 C 289.296875 247.839844 289.117188 247.527344 289.394531 248.394531 C 290.261719 254.597656 289.957031 252.457031 289.839844 254.867188 C 290.628906 258.910156 290.511719 258.117188 290.519531 258.945312 C 290.40625 260.949219 290.367188 260.128906 290.488281 261.160156 C 290.492188 262.375 290.558594 261.878906 290.167969 263.34375 C 289.609375 265.035156 289.757812 264.613281 289.511719 265.25 C 290.003906 265.679688 289.808594 265.519531 290.375 265.945312 C 291.007812 266.960938 290.785156 266.480469 291.339844 268.117188 C 291.480469 269.773438 291.476562 269.09375 291.324219 271.125 C 290.847656 272.496094 291.019531 272.109375 290.578125 272.886719 C 288.753906 274.828125 289.578125 274.078125 286.886719 276.175781 C 281.589844 279.367188 278.902344 281.691406 273.730469 284.90625 C 270.871094 286.992188 271.511719 286.503906 270.550781 287.292969 C 267.636719 289.898438 268.65625 288.867188 266.074219 291.773438 C 259.890625 299.09375 264.375 293.722656 264.050781 294.253906 C 263.824219 294.851562 264.050781 294.523438 263.027344 295.621094 C 261.304688 297.296875 261.765625 296.820312 260.925781 297.773438 C 259.195312 300.433594 259.566406 299.804688 259.058594 300.804688 C 255.921875 306.480469 258.027344 302.019531 255.632812 306.78125 C 255.296875 308.183594 255.328125 307.578125 255.546875 309.476562 C 255.757812 310.648438 255.628906 310.0625 256.136719 312.144531 C 258.230469 317.5 258.285156 316.699219 259.160156 318.875 C 260.257812 320.976562 259.109375 319.347656 260.757812 322.425781 C 261.671875 324.855469 261.386719 323.957031 262.039062 326.34375 C 262.273438 329.367188 262.0625 326.03125 262.796875 331.722656 C 262.800781 331.730469 262.78125 331.675781 263.367188 333.632812 C 263.917969 335.300781 264.457031 336.929688 263.914062 335.277344 C 264.601562 336.671875 264.316406 336.199219 265.152344 337.367188 C 266.3125 338.410156 266.277344 338.4375 266.628906 338.527344 C 267.460938 338.769531 272.382812 340.21875 272.648438 340.308594 C 276.328125 341.105469 274.566406 340.542969 278.871094 341.75 C 282.117188 342.433594 285.085938 343.144531 291.167969 343.367188 C 298.535156 343.789062 300.183594 343.679688 302.542969 343.628906 C 306.085938 344.285156 305.261719 344.085938 306.53125 344.511719 C 312.414062 346.730469 311.363281 344.902344 320.878906 345.003906 C 323.679688 344.078125 322.585938 344.515625 325.695312 343.039062 C 328.050781 341.621094 327.253906 342.28125 329.210938 340.230469 C 332.265625 336.101562 332.257812 336.101562 335.140625 333.710938 C 336.507812 332.597656 336.046875 332.863281 337.175781 332.476562 C 338.320312 331.90625 338.144531 331.796875 340.28125 331.886719 C 341.824219 332.28125 341.3125 332.023438 342.535156 332.945312 C 343.460938 334.015625 343.238281 333.6875 343.566406 334.40625 C 344.058594 335.203125 343.9375 334.96875 344.125 335.472656 C 344.746094 337.015625 344.632812 336.558594 344.675781 337.53125 C 344.839844 337.824219 344.769531 337.578125 345 338.8125 C 344.695312 340.886719 344.851562 340.128906 344.292969 342.113281 C 343.484375 344.660156 343.859375 343.703125 342.75 345.90625 C 342.035156 346.816406 342.328125 346.515625 341.453125 347.203125 C 341.023438 347.535156 341.070312 347.5 341.0625 347.515625 C 341.113281 347.664062 341.0625 347.578125 341.308594 347.914062 C 341.460938 349.234375 341.445312 348.515625 341.351562 351.1875 C 341.175781 352.953125 341.296875 352.449219 340.847656 353.46875 C 340.855469 353.582031 340.667969 353.574219 342.082031 353.375 C 343.769531 353.242188 343.179688 353.328125 344.691406 353.027344 C 346.925781 352.84375 348.667969 352.652344 351.011719 353.3125 C 351.898438 353.589844 351.460938 353.378906 352.984375 354.304688 C 354.289062 355.648438 354.015625 355.410156 354.394531 355.636719 L 354.726562 356.414062 Z M 354.730469 356.414062 " fill-opacity="1" fill-rule="nonzero"/></g><g transform="matrix(1, 0, 0, 1, 84, 11)"><g clip-path="url(#6b578bba98)"><g fill="#ffc857" fill-opacity="1"><g transform="translate(2.427407, 66.720904)"><g><path d="M 64.863281 -37.015625 C 64.863281 -44.347656 57.53125 -50.621094 50.128906 -50.621094 L 3.101562 -50.621094 L 3.101562 -0.0703125 L 50.128906 -0.0703125 C 58.097656 -0.0703125 64.863281 -5.710938 64.863281 -13.75 Z M 55.347656 -13.75 C 55.347656 -10.714844 53.582031 -9.234375 50.128906 -9.234375 L 12.621094 -9.234375 L 12.621094 -41.597656 L 50.128906 -41.597656 C 52.667969 -41.597656 55.347656 -39.484375 55.347656 -37.015625 Z M 55.347656 -13.75 "/></g></g></g><g fill="#ffc857" fill-opacity="1"><g transform="translate(72.925949, 66.720904)"><g><path d="M 62.609375 -37.015625 C 62.609375 -44.488281 55.417969 -50.621094 47.871094 -50.621094 L 4.089844 -50.621094 L 4.089844 -41.597656 L 47.871094 -41.597656 C 50.410156 -41.597656 53.160156 -39.484375 53.160156 -37.015625 L 53.160156 -13.75 C 53.160156 -10.714844 51.398438 -9.234375 47.871094 -9.234375 L 17.980469 -9.234375 C 14.523438 -9.234375 12.761719 -10.714844 12.761719 -13.75 L 12.761719 -16.144531 C 12.761719 -18.683594 15.441406 -20.726562 17.980469 -20.726562 L 47.871094 -20.726562 L 47.871094 -29.824219 L 17.980469 -29.824219 C 10.574219 -29.824219 3.242188 -23.832031 3.242188 -16.144531 L 3.242188 -13.75 C 3.242188 -5.710938 9.941406 -0.0703125 17.980469 -0.0703125 L 47.871094 -0.0703125 C 55.980469 -0.0703125 62.609375 -5.710938 62.609375 -13.75 Z M 62.609375 -37.015625 "/></g></g></g><g fill="#ffc857" fill-opacity="1"><g transform="translate(141.168538, 66.720904)"><g><path d="M 62.257812 -50.621094 L 3.453125 -50.621094 L 3.453125 -41.597656 L 27.992188 -41.597656 L 27.992188 -0.0703125 L 37.4375 -0.0703125 L 37.4375 -41.597656 L 62.257812 -41.597656 Z M 62.257812 -50.621094 "/></g></g></g><g fill="#ffc857" fill-opacity="1"><g transform="translate(208.494641, 66.720904)"><g><path d="M 62.609375 -37.015625 C 62.609375 -44.488281 55.417969 -50.621094 47.871094 -50.621094 L 4.089844 -50.621094 L 4.089844 -41.597656 L 47.871094 -41.597656 C 50.410156 -41.597656 53.160156 -39.484375 53.160156 -37.015625 L 53.160156 -13.75 C 53.160156 -10.714844 51.398438 -9.234375 47.871094 -9.234375 L 17.980469 -9.234375 C 14.523438 -9.234375 12.761719 -10.714844 12.761719 -13.75 L 12.761719 -16.144531 C 12.761719 -18.683594 15.441406 -20.726562 17.980469 -20.726562 L 47.871094 -20.726562 L 47.871094 -29.824219 L 17.980469 -29.824219 C 10.574219 -29.824219 3.242188 -23.832031 3.242188 -16.144531 L 3.242188 -13.75 C 3.242188 -5.710938 9.941406 -0.0703125 17.980469 -0.0703125 L 47.871094 -0.0703125 C 55.980469 -0.0703125 62.609375 -5.710938 62.609375 -13.75 Z M 62.609375 -37.015625 "/></g></g></g><g fill="#ffc857" fill-opacity="1"><g transform="translate(37.94608, 164.186391)"><g><path d="M 62.75 -9.234375 L 18.261719 -9.234375 C 14.804688 -9.234375 13.042969 -10.714844 13.042969 -13.75 L 13.042969 -37.015625 C 13.042969 -39.484375 15.722656 -41.597656 18.261719 -41.597656 L 62.75 -41.597656 L 62.75 -50.621094 L 18.261719 -50.621094 C 10.789062 -50.621094 3.453125 -44.347656 3.453125 -37.015625 L 3.453125 -13.75 C 3.453125 -5.710938 10.222656 -0.0703125 18.261719 -0.0703125 L 62.75 -0.0703125 Z M 62.75 -9.234375 "/></g></g></g><g fill="#ffc857" fill-opacity="1"><g transform="translate(105.695169, 164.186391)"><g><path d="M 62.609375 -37.015625 C 62.609375 -44.488281 55.417969 -50.621094 47.871094 -50.621094 L 4.089844 -50.621094 L 4.089844 -41.597656 L 47.871094 -41.597656 C 50.410156 -41.597656 53.160156 -39.484375 53.160156 -37.015625 L 53.160156 -13.75 C 53.160156 -10.714844 51.398438 -9.234375 47.871094 -9.234375 L 17.980469 -9.234375 C 14.523438 -9.234375 12.761719 -10.714844 12.761719 -13.75 L 12.761719 -16.144531 C 12.761719 -18.683594 15.441406 -20.726562 17.980469 -20.726562 L 47.871094 -20.726562 L 47.871094 -29.824219 L 17.980469 -29.824219 C 10.574219 -29.824219 3.242188 -23.832031 3.242188 -16.144531 L 3.242188 -13.75 C 3.242188 -5.710938 9.941406 -0.0703125 17.980469 -0.0703125 L 47.871094 -0.0703125 C 55.980469 -0.0703125 62.609375 -5.710938 62.609375 -13.75 Z M 62.609375 -37.015625 "/></g></g></g><g fill="#ffc857" fill-opacity="1"><g transform="translate(173.937757, 164.186391)"><g><path d="M 62.257812 -50.621094 L 3.453125 -50.621094 L 3.453125 -41.597656 L 27.992188 -41.597656 L 27.992188 -0.0703125 L 37.4375 -0.0703125 L 37.4375 -41.597656 L 62.257812 -41.597656 Z M 62.257812 -50.621094 "/></g></g></g></g></g></svg>