<svg xmlns="http://www.w3.org/2000/svg" xmlns:xlink="http://www.w3.org/1999/xlink" width="500" zoomAndPan="magnify" viewBox="0 0 375 374.999991" height="500" preserveAspectRatio="xMidYMid meet" version="1.0"><defs><clipPath id="c67c69060e"><path d="M 1 29.0625 L 374 29.0625 L 374 345 L 1 345 Z M 1 29.0625 " clip-rule="nonzero"/></clipPath></defs><g clip-path="url(#c67c69060e)"><path fill="#ffc857" d="M 55.367188 30.886719 C 58.554688 29.128906 62.460938 29.714844 65.585938 31.277344 C 80.757812 38.175781 94.300781 48.398438 106.472656 59.726562 C 111.164062 63.960938 115.328125 68.710938 119.691406 73.269531 C 162.335938 54.0625 213.378906 53.671875 255.828125 73.59375 C 262.730469 65.195312 270.675781 57.773438 278.941406 50.742188 C 288.449219 42.996094 298.667969 35.898438 309.933594 30.886719 C 313.644531 29.0625 318.527344 29.191406 321.585938 32.121094 C 323.800781 34.011719 325.167969 36.613281 326.339844 39.21875 C 331.9375 51.980469 335.128906 65.78125 335.976562 79.652344 C 336.953125 96.511719 334.089844 113.441406 328.359375 129.261719 C 328.03125 130.109375 328.488281 130.953125 328.75 131.671875 C 339.296875 155.042969 344.503906 180.828125 343.332031 206.480469 C 351.601562 207.324219 359.804688 209.019531 367.683594 211.816406 C 370.289062 212.664062 372.566406 214.550781 373.542969 217.15625 C 374.910156 220.867188 373.085938 225.488281 369.441406 226.988281 C 366.121094 228.550781 362.472656 227.3125 359.21875 226.335938 C 353.359375 224.578125 347.433594 223.082031 341.316406 222.300781 C 340.339844 226.988281 339.558594 231.675781 337.996094 236.234375 C 346.914062 239.359375 355.574219 243.328125 363.386719 248.601562 C 367.75 251.792969 367.097656 259.148438 362.671875 262.015625 C 359.871094 264.03125 355.898438 263.511719 353.097656 261.753906 C 348.996094 258.890625 344.441406 256.804688 339.949219 254.527344 C 337.472656 253.355469 335.066406 252.054688 332.394531 251.402344 C 323.929688 270.480469 311.886719 287.992188 296.652344 302.25 C 279.984375 317.746094 259.929688 329.59375 238.25 336.433594 C 215.984375 343.59375 192.21875 345.9375 168.976562 343.398438 C 143.910156 340.339844 119.300781 332.070312 98.207031 318.007812 C 73.660156 301.730469 53.933594 278.226562 42.410156 251.078125 C 35.441406 254.070312 28.605469 257.328125 22.226562 261.558594 C 19.230469 263.578125 14.871094 263.902344 11.9375 261.625 C 7.707031 258.5 7.707031 251.207031 12.199219 248.277344 C 19.816406 243.199219 28.085938 239.03125 36.808594 236.296875 C 35.507812 231.675781 34.335938 226.921875 33.425781 222.234375 C 26.394531 223.339844 19.492188 225.164062 12.785156 227.378906 C 9.140625 228.613281 4.515625 227.507812 2.5625 224.058594 C 0.0898438 219.957031 2.109375 214.292969 6.46875 212.402344 C 14.480469 209.082031 23.203125 207.714844 31.730469 206.347656 C 30.886719 181.085938 35.574219 155.628906 45.664062 132.453125 C 45.992188 131.34375 46.902344 130.238281 46.511719 129.066406 C 39.871094 109.992188 37.199219 89.351562 40.261719 69.296875 C 41.757812 58.75 44.621094 48.398438 48.921875 38.699219 C 50.484375 35.898438 52.109375 32.449219 55.367188 30.886719 M 62.136719 52.175781 C 60.898438 54.519531 60.378906 57.1875 59.597656 59.726562 C 53.414062 81.34375 55.367188 104.78125 63.179688 125.679688 C 63.894531 127.828125 64.871094 130.171875 64.15625 132.453125 C 63.179688 135.640625 61.484375 138.507812 60.378906 141.632812 C 52.109375 161.816406 47.683594 183.757812 48.53125 205.632812 C 59.402344 205.828125 70.339844 206.542969 81.082031 207.976562 C 83.492188 208.300781 86.226562 209.929688 86.097656 212.664062 C 86.292969 215.332031 83.6875 217.222656 81.277344 217.546875 C 70.859375 218.132812 60.445312 218.914062 50.09375 220.214844 C 50.484375 224.058594 51.589844 227.703125 52.371094 231.480469 C 63.828125 229.785156 75.417969 228.417969 87.007812 228.417969 C 88.765625 228.484375 90.71875 229.136719 91.761719 230.632812 C 93.453125 233.171875 91.761719 237.015625 88.894531 237.796875 C 83.949219 239.03125 78.933594 239.8125 74.050781 241.050781 C 68.777344 242.222656 63.699219 243.980469 58.492188 245.21875 C 58.554688 246.324219 58.816406 247.429688 59.402344 248.40625 C 72.226562 275.035156 93.582031 297.691406 119.886719 311.367188 C 142.871094 323.410156 169.238281 328.554688 195.085938 327.382812 C 223.210938 326.078125 251.078125 316.703125 273.605469 299.710938 C 291.898438 286.105469 306.289062 267.679688 316.117188 247.105469 C 316.25 246.648438 316.507812 245.738281 316.640625 245.21875 C 312.601562 244.304688 308.632812 242.9375 304.59375 241.960938 C 298.800781 240.398438 292.875 239.359375 287.015625 238.054688 C 284.152344 237.601562 282.003906 234.410156 283.042969 231.609375 C 283.824219 229.265625 286.558594 228.222656 288.902344 228.289062 C 300.101562 228.289062 311.300781 229.527344 322.367188 231.21875 C 323.539062 227.574219 324.125 223.863281 325.039062 220.152344 C 315.402344 218.847656 305.765625 218.132812 296.066406 217.613281 C 294.4375 217.546875 292.613281 217.675781 291.3125 216.570312 C 289.488281 215.332031 288.449219 212.792969 289.554688 210.710938 C 290.402344 209.019531 292.160156 208.105469 293.980469 207.976562 C 304.726562 206.480469 315.53125 205.632812 326.40625 205.503906 C 327.121094 182.324219 322.171875 159.144531 312.734375 137.984375 C 311.691406 135.578125 310.390625 133.167969 310.390625 130.5 C 310.324219 128.675781 311.039062 126.917969 311.691406 125.289062 C 320.480469 102.242188 322.042969 75.9375 313.320312 52.632812 C 312.601562 50.484375 309.671875 49.960938 307.914062 51.132812 C 292.613281 60.054688 279.527344 72.164062 267.550781 84.988281 C 265.53125 87.136719 263.835938 89.613281 261.429688 91.371094 C 258.824219 92.800781 255.699219 92.019531 253.226562 90.652344 C 233.691406 80.757812 211.816406 75.742188 189.941406 75.484375 C 166.761719 75.15625 143.390625 79.976562 122.621094 90.328125 C 120.34375 91.5 117.738281 92.671875 115.070312 91.957031 C 112.726562 91.433594 111.488281 89.15625 109.925781 87.527344 C 97.621094 73.660156 83.816406 60.964844 67.867188 51.394531 C 66.238281 50.289062 63.375 50.351562 62.136719 52.175781 Z M 62.136719 52.175781 " fill-opacity="1" fill-rule="nonzero"/></g><path fill="#ffc857" d="M 108.363281 179.328125 C 117.542969 177.246094 127.632812 182.585938 131.148438 191.242188 C 134.339844 198.40625 132.777344 207.457031 127.242188 213.054688 C 120.667969 220.214844 108.6875 221.714844 100.808594 215.855469 C 94.105469 211.425781 90.71875 202.765625 92.476562 194.953125 C 94.105469 187.273438 100.613281 180.890625 108.363281 179.328125 Z M 108.363281 179.328125 " fill-opacity="1" fill-rule="nonzero"/><path fill="#ffc857" d="M 259.28125 179.328125 C 270.023438 176.855469 281.675781 184.472656 283.695312 195.28125 C 285.910156 205.4375 278.8125 216.246094 268.851562 218.847656 C 257.914062 222.167969 245.414062 214.355469 243.265625 203.222656 C 240.855469 192.546875 248.734375 181.28125 259.28125 179.328125 Z M 259.28125 179.328125 " fill-opacity="1" fill-rule="nonzero"/><path fill="#ffc857" d="M 176.464844 214.097656 C 182.0625 213.574219 187.664062 214.03125 193.261719 213.902344 C 196.191406 213.902344 199.640625 213.445312 201.921875 215.660156 C 203.875 217.351562 204.003906 220.542969 202.441406 222.558594 C 199.96875 226.140625 196.84375 229.136719 194.109375 232.457031 C 192.9375 233.824219 191.828125 235.257812 190.398438 236.363281 C 188.574219 237.40625 185.839844 237.664062 184.277344 235.972656 C 181.414062 233.171875 179.132812 229.851562 176.335938 227.050781 C 174.445312 224.707031 171.710938 222.496094 171.839844 219.238281 C 171.777344 216.570312 174.054688 214.488281 176.464844 214.097656 Z M 176.464844 214.097656 " fill-opacity="1" fill-rule="nonzero"/><path fill="#ffc857" d="M 150.292969 242.613281 C 151.660156 241.050781 154.261719 240.984375 155.824219 242.351562 C 157.0625 243.394531 157.191406 245.085938 157.519531 246.585938 C 158.167969 251.011719 161.554688 255.113281 166.046875 256.023438 C 170.996094 257.390625 176.53125 254.722656 179.003906 250.359375 C 180.5 248.210938 181.152344 245.085938 183.886719 244.175781 C 187.402344 243.070312 192.351562 243.132812 194.304688 246.84375 C 196.191406 250.359375 198.339844 254.203125 202.375 255.570312 C 208.496094 258.433594 216.441406 254.398438 218.003906 247.886719 C 218.523438 245.933594 218.457031 243.394531 220.347656 242.15625 C 222.234375 240.660156 225.359375 241.570312 226.074219 243.914062 C 226.660156 246.453125 225.683594 248.929688 224.839844 251.273438 C 222.234375 258.628906 214.941406 264.359375 207.066406 264.359375 C 200.292969 264.683594 193.78125 260.710938 190.136719 255.179688 C 189.226562 253.875 188.640625 252.378906 187.53125 251.273438 C 184.667969 257.261719 179.589844 262.664062 172.816406 264.03125 C 168.261719 264.8125 163.3125 264.421875 159.40625 261.820312 C 154.394531 258.824219 151.074219 253.550781 149.707031 247.886719 C 149.25 246.0625 148.988281 243.980469 150.292969 242.613281 Z M 150.292969 242.613281 " fill-opacity="1" fill-rule="nonzero"/></svg>