<svg xmlns="http://www.w3.org/2000/svg" xmlns:xlink="http://www.w3.org/1999/xlink" width="500" zoomAndPan="magnify" viewBox="0 0 375 374.999991" height="500" preserveAspectRatio="xMidYMid meet" version="1.0"><defs><clipPath id="4bdd727aa5"><path d="M 1.136719 9 L 373.886719 9 L 373.886719 373 L 1.136719 373 Z M 1.136719 9 " clip-rule="nonzero"/></clipPath></defs><g clip-path="url(#4bdd727aa5)"><path fill="#ffc857" d="M 187.480469 23.480469 L 207.902344 14.46875 C 207.902344 14.46875 238.171875 -0.0078125 267.785156 19.074219 C 297.394531 38.15625 316.480469 57.242188 337.535156 50.660156 C 337.535156 50.660156 324.375 66.453125 298.710938 63.164062 C 298.710938 63.164062 319.113281 78.296875 333.585938 109.226562 C 348.0625 140.152344 373.070312 134.230469 373.070312 134.230469 C 373.070312 134.230469 362.539062 150.679688 338.851562 149.363281 C 338.851562 149.363281 373.726562 178.976562 335.5625 232.277344 C 297.394531 285.574219 293.445312 314.527344 293.445312 314.527344 C 293.445312 314.527344 286.210938 304.660156 286.867188 292.15625 C 286.867188 292.15625 272.390625 335.585938 226.988281 352.695312 L 227.644531 331.640625 C 227.644531 331.640625 188.386719 374.992188 187.480469 372.457031 C 186.570312 374.992188 147.3125 331.640625 147.3125 331.640625 L 147.972656 352.695312 C 102.566406 335.585938 88.089844 292.15625 88.089844 292.15625 C 88.75 304.660156 81.511719 314.527344 81.511719 314.527344 C 81.511719 314.527344 77.5625 285.574219 39.394531 232.277344 C 1.230469 178.976562 36.105469 149.363281 36.105469 149.363281 C 12.417969 150.679688 1.890625 134.230469 1.890625 134.230469 C 1.890625 134.230469 26.894531 140.152344 41.371094 109.226562 C 55.847656 78.296875 76.246094 63.164062 76.246094 63.164062 C 50.585938 66.453125 37.421875 50.660156 37.421875 50.660156 C 58.480469 57.242188 77.5625 38.15625 107.171875 19.074219 C 136.785156 -0.0078125 167.054688 14.46875 167.054688 14.46875 Z M 225.289062 225.976562 C 208.878906 204.207031 166.078125 204.347656 149.667969 225.976562 C 149.835938 234.378906 151.753906 243.550781 156.15625 245.5 C 160.558594 247.453125 170.828125 244.773438 176.085938 237.691406 C 176.085938 237.691406 175.550781 248.0625 170.40625 256 C 176.679688 258.675781 181.789062 259.644531 187.480469 259.644531 C 193.171875 259.644531 198.28125 258.675781 204.550781 256 C 199.40625 248.0625 198.871094 237.691406 198.871094 237.691406 C 204.132812 244.773438 214.398438 247.453125 218.804688 245.5 C 223.207031 243.550781 225.121094 234.378906 225.289062 225.976562 Z M 161.339844 165.117188 L 213.617188 165.117188 C 213.617188 165.117188 213.890625 185.042969 190.488281 185.042969 C 190.488281 185.042969 202.472656 212.429688 225.480469 212.429688 C 260.863281 212.429688 250.972656 165.265625 234.214844 154.820312 C 233.101562 154.242188 233.640625 154.460938 234.214844 154.820312 C 242.230469 158.984375 275.085938 174.277344 275.085938 145.167969 C 275.085938 112.007812 254.644531 118.636719 254.644531 118.636719 C 249.832031 119.5625 221.046875 124.339844 210.351562 140.132812 C 210.351562 140.132812 203.503906 112.996094 240.257812 113.628906 C 253.832031 113.863281 255.835938 94.121094 255.835938 94.121094 C 255.835938 57.367188 187.320312 81.75 187.320312 81.75 C 187.320312 81.75 119.121094 57.367188 119.121094 94.121094 C 119.121094 94.121094 121.128906 113.863281 134.699219 113.628906 C 171.453125 112.996094 164.609375 140.132812 164.609375 140.132812 C 153.910156 124.339844 125.128906 119.5625 120.316406 118.636719 C 120.316406 118.636719 99.871094 112.007812 99.871094 145.167969 C 99.871094 174.277344 132.726562 158.984375 140.742188 154.820312 C 141.320312 154.460938 141.859375 154.242188 140.742188 154.820312 C 123.988281 165.265625 114.097656 212.429688 149.476562 212.429688 C 172.488281 212.429688 184.46875 185.042969 184.46875 185.042969 C 161.066406 185.042969 161.339844 165.117188 161.339844 165.117188 Z M 161.339844 165.117188 " fill-opacity="1" fill-rule="evenodd"/></g></svg>