<svg xmlns="http://www.w3.org/2000/svg" xmlns:xlink="http://www.w3.org/1999/xlink" width="500" zoomAndPan="magnify" viewBox="0 0 375 374.999991" height="500" preserveAspectRatio="xMidYMid meet" version="1.0"><path fill="#ffc857" d="M 251.410156 0.351562 C 250.632812 0.363281 249.835938 0.402344 249.039062 0.464844 C 217.433594 5.917969 200.054688 39.34375 197.535156 68.816406 C 193.855469 95.558594 205.640625 129.933594 235.007812 135.925781 C 239.265625 136.738281 243.691406 136.367188 247.855469 135.238281 C 283.214844 123.382812 299.039062 81.5 293.929688 46.8125 C 292.441406 24.40625 275.554688 0.0429688 251.410156 0.351562 Z M 117.40625 1.785156 C 97.75 2.269531 82.441406 22.203125 79.328125 40.941406 C 72.761719 78.0625 89.648438 124.1875 128.324219 135.929688 C 131.945312 136.71875 135.691406 136.800781 139.351562 136.234375 C 165.492188 131.878906 176.566406 102.570312 175.472656 78.910156 C 174.6875 47.699219 158.472656 11.613281 126.0625 2.835938 C 123.101562 2.050781 120.214844 1.71875 117.40625 1.789062 Z M 337.050781 107.222656 C 303.050781 109.257812 279.742188 143.183594 276.417969 174.859375 C 271.917969 197.707031 284.097656 228.261719 310.167969 230.085938 C 346.515625 229.640625 371.3125 190.796875 372.34375 157.378906 C 374.640625 135.277344 361.621094 108.445312 337.050781 107.222656 Z M 39.460938 114.75 C 24.996094 114.625 10.769531 123.292969 6.042969 137.996094 C -6.566406 177.328125 18.757812 227.144531 60.414062 235.414062 C 77.804688 238.386719 93.078125 225.035156 97.390625 208.96875 C 106.527344 174.609375 87.761719 134.710938 56.003906 119.113281 C 50.832031 116.210938 45.121094 114.808594 39.460938 114.757812 Z M 191.882812 185.28125 C 163.523438 185.34375 134.722656 199.734375 116.359375 221.152344 C 96.527344 246.121094 80.28125 275.175781 73.925781 306.683594 C 66.203125 329.367188 83.703125 355.46875 107.949219 355.625 C 137.117188 356.4375 162.1875 336.40625 191.191406 334.917969 C 215.800781 331.167969 237.832031 343.96875 259.957031 352.34375 C 278.792969 360.402344 304.824219 357.3125 314.441406 337.042969 C 322.003906 316.378906 310.871094 294.347656 301.648438 275.996094 C 282.835938 246.210938 262.679688 214.90625 231.832031 196.3125 C 219.46875 188.648438 205.730469 185.253906 191.882812 185.28125 Z M 191.882812 185.28125 " fill-opacity="1" fill-rule="nonzero"/></svg>