<svg xmlns="http://www.w3.org/2000/svg" xmlns:xlink="http://www.w3.org/1999/xlink" width="500" zoomAndPan="magnify" viewBox="0 0 375 374.999991" height="500" preserveAspectRatio="xMidYMid meet" version="1.0"><defs><clipPath id="e3fe3ce08f"><path d="M 92.6875 0 L 291.4375 0 L 291.4375 375 L 92.6875 375 Z M 92.6875 0 " clip-rule="nonzero"/></clipPath></defs><g clip-path="url(#e3fe3ce08f)"><path fill="#ffc857" d="M 118.59375 0.730469 C 104.253906 0.730469 92.710938 12.273438 92.710938 26.613281 L 92.710938 348.308594 C 92.710938 362.648438 104.253906 374.191406 118.59375 374.191406 L 265.265625 374.191406 C 279.605469 374.191406 291.148438 362.648438 291.148438 348.308594 L 291.148438 26.613281 C 291.148438 12.273438 279.605469 0.730469 265.265625 0.730469 Z M 176.078125 24.855469 L 207.785156 24.855469 C 208.65625 24.855469 209.355469 25.554688 209.355469 26.425781 L 209.355469 28.296875 C 209.355469 29.167969 208.65625 29.867188 207.785156 29.867188 L 176.078125 29.867188 C 175.207031 29.867188 174.507812 29.167969 174.507812 28.296875 L 174.507812 26.425781 C 174.507812 25.554688 175.207031 24.855469 176.078125 24.855469 Z M 110.292969 54.566406 L 273.570312 54.566406 L 273.570312 320.355469 L 110.292969 320.355469 Z M 191.929688 331.574219 C 200.757812 331.574219 207.914062 338.730469 207.914062 347.558594 C 207.914062 356.386719 200.757812 363.542969 191.929688 363.542969 C 183.101562 363.542969 175.945312 356.386719 175.945312 347.558594 C 175.945312 338.730469 183.101562 331.574219 191.929688 331.574219 Z M 191.929688 331.574219 " fill-opacity="1" fill-rule="nonzero"/></g></svg>