<svg xmlns="http://www.w3.org/2000/svg" xmlns:xlink="http://www.w3.org/1999/xlink" width="500" zoomAndPan="magnify" viewBox="0 0 375 374.999991" height="500" preserveAspectRatio="xMidYMid meet" version="1.0"><path fill="#ffc857" d="M 110.472656 86.328125 L 131.863281 116.136719 C 95.703125 121.414062 73.046875 131.019531 68.304688 137.488281 C 75.152344 146.824219 119.195312 162.664062 187.308594 162.703125 C 255.421875 162.742188 299.503906 146.824219 306.3125 137.488281 C 301.570312 131.019531 278.914062 121.414062 242.792969 116.136719 L 264.183594 86.328125 C 304.554688 94.210938 339.796875 109.667969 339.796875 137.488281 C 339.800781 142.566406 338.613281 147.347656 336.238281 151.835938 C 333.910156 155.554688 331.359375 159.113281 328.585938 162.511719 L 223.890625 288.789062 C 222.125 290.902344 220.558594 293.148438 219.1875 295.535156 C 217.8125 297.921875 216.65625 300.40625 215.71875 302.992188 C 214.777344 305.582031 214.070312 308.230469 213.589844 310.9375 C 213.113281 313.648438 212.871094 316.378906 212.871094 319.132812 L 212.871094 363.023438 C 212.871094 363.816406 212.792969 364.601562 212.636719 365.378906 C 212.480469 366.15625 212.25 366.910156 211.945312 367.640625 C 211.636719 368.375 211.261719 369.066406 210.820312 369.726562 C 210.375 370.382812 209.871094 370.988281 209.308594 371.546875 C 208.742188 372.105469 208.128906 372.601562 207.46875 373.035156 C 206.804688 373.46875 206.105469 373.835938 205.371094 374.132812 C 204.636719 374.429688 203.878906 374.648438 203.097656 374.796875 C 202.320312 374.941406 201.53125 375.011719 200.738281 375 L 173.953125 375 C 173.167969 375 172.390625 374.921875 171.617188 374.769531 C 170.847656 374.617188 170.097656 374.390625 169.371094 374.089844 C 168.644531 373.789062 167.953125 373.417969 167.300781 372.980469 C 166.644531 372.542969 166.042969 372.046875 165.484375 371.492188 C 164.929688 370.9375 164.433594 370.332031 163.996094 369.675781 C 163.558594 369.023438 163.191406 368.332031 162.890625 367.605469 C 162.585938 366.878906 162.359375 366.128906 162.207031 365.359375 C 162.054688 364.589844 161.976562 363.808594 161.976562 363.023438 L 161.976562 319.285156 C 161.972656 316.535156 161.734375 313.800781 161.253906 311.09375 C 160.777344 308.382812 160.070312 305.734375 159.128906 303.148438 C 158.191406 300.558594 157.035156 298.074219 155.660156 295.6875 C 154.289062 293.300781 152.71875 291.054688 150.957031 288.941406 L 46.261719 162.664062 C 43.488281 159.265625 40.9375 155.707031 38.609375 151.988281 C 36.234375 147.5 35.046875 142.71875 35.050781 137.640625 C 34.859375 109.628906 70.101562 94.171875 110.472656 86.328125 Z M 132.511719 53.570312 C 131.898438 54.78125 131.460938 56.046875 131.199219 57.378906 C 130.9375 58.707031 130.859375 60.046875 130.964844 61.398438 C 131.074219 62.746094 131.363281 64.058594 131.835938 65.328125 C 132.304688 66.597656 132.9375 67.78125 133.738281 68.878906 L 175.292969 127.195312 C 175.632812 127.671875 176 128.125 176.394531 128.558594 C 176.789062 128.988281 177.210938 129.398438 177.652344 129.78125 C 178.09375 130.164062 178.558594 130.519531 179.042969 130.84375 C 179.53125 131.171875 180.03125 131.46875 180.554688 131.738281 C 181.074219 132.007812 181.609375 132.242188 182.15625 132.445312 C 182.707031 132.648438 183.265625 132.820312 183.832031 132.960938 C 184.402344 133.097656 184.976562 133.199219 185.558594 133.269531 C 186.140625 133.339844 186.722656 133.375 187.308594 133.375 C 187.894531 133.375 188.476562 133.339844 189.058594 133.269531 C 189.640625 133.199219 190.214844 133.097656 190.785156 132.960938 C 191.351562 132.820312 191.910156 132.648438 192.460938 132.445312 C 193.007812 132.242188 193.542969 132.007812 194.0625 131.738281 C 194.585938 131.46875 195.085938 131.171875 195.574219 130.84375 C 196.058594 130.519531 196.523438 130.164062 196.964844 129.78125 C 197.410156 129.398438 197.828125 128.988281 198.222656 128.558594 C 198.617188 128.125 198.984375 127.671875 199.324219 127.195312 L 240.878906 68.878906 C 241.671875 67.773438 242.300781 66.582031 242.761719 65.304688 C 243.226562 64.027344 243.507812 62.710938 243.609375 61.355469 C 243.707031 60 243.625 58.660156 243.351562 57.328125 C 243.082031 55.996094 242.636719 54.726562 242.015625 53.515625 C 241.394531 52.308594 240.621094 51.207031 239.695312 50.210938 C 238.769531 49.214844 237.726562 48.363281 236.566406 47.65625 C 235.40625 46.949219 234.175781 46.414062 232.867188 46.046875 C 231.558594 45.679688 230.222656 45.496094 228.863281 45.496094 L 211.835938 45.496094 L 211.835938 0 L 162.820312 0 L 162.820312 45.652344 L 145.636719 45.652344 C 144.285156 45.644531 142.957031 45.816406 141.652344 46.175781 C 140.347656 46.535156 139.117188 47.066406 137.960938 47.765625 C 136.800781 48.460938 135.761719 49.304688 134.835938 50.292969 C 133.910156 51.277344 133.136719 52.371094 132.511719 53.570312 Z M 132.511719 53.570312 " fill-opacity="1" fill-rule="nonzero"/></svg>